<?xml version="1.0" encoding="UTF-8" standalone="no"?>
<!-- Created with Inkscape (http://www.inkscape.org/) -->

<svg
   xmlns:svg="http://www.w3.org/2000/svg"
   xmlns="http://www.w3.org/2000/svg"
   version="1.1"
   width="744.09448"
   height="1052.3622"
   id="svg5959">
  <defs
     id="defs5961" />
  <g
     id="layer1">
    <path
       d="m 185.86807,54.331468 c 0,0 -21.21321,10.101525 -32.32488,42.426407 -11.11168,32.324885 -23.23351,70.710675 -27.27412,120.208155 -4.04061,49.49747 -10.10153,77.78174 -6.06092,98.99495 4.04061,21.2132 0,50.50762 -3.03045,85.86296 -3.03046,35.35534 -5.05077,37.37565 -2.02031,69.70053 3.03046,32.32488 30.30458,98.99495 41.41625,133.34014 11.11168,34.34518 40.40611,92.93403 69.70053,129.29952 29.29442,36.36549 37.37564,31.31473 52.52793,54.54824 15.15229,23.23351 71.72083,97.9848 95.96449,110.10663 24.24367,12.12183 28.28428,12.12183 28.28428,12.12183 0,0 15.87708,21.6211 17.17259,25.25381 2.73562,7.67091 27.27412,25.25381 38.3858,21.2132 11.11167,-4.04061 16.16244,-5.05076 16.16244,-5.05076 0,0 -2.02031,24.24366 11.11167,21.2132 13.13199,-3.03045 -3.03045,9.09138 -4.04061,-9.09137 -1.01015,-18.18274 0,-18.18274 0,-18.18274 0,0 -2.0203,8.08122 7.07107,14.14213 9.09137,6.06092 22.22336,-1.01015 22.22336,-1.01015 0,0 -10.10153,8.08122 -18.18275,-4.04061 -8.08122,-12.12183 -8.08122,-17.1726 -8.08122,-17.1726 0,0 12.12183,16.16245 21.21321,13.13199 9.09137,-3.03046 11.11167,-8.08122 11.11167,-8.08122 0,0 -6.06091,9.09137 -16.16244,0 -10.10152,-9.09138 -9.09137,-14.14214 -9.09137,-14.14214 0,0 0,-19.1929 -4.04061,-30.30457 -4.04061,-11.11168 -1.01015,-10.10153 -1.01015,-10.10153 0,0 15.15229,36.36549 42.4264,36.36549 27.27412,0 49.49748,-6.06091 49.49748,-6.06091 0,0 -2.85714,12.77484 0.17332,16.81545 3.03045,4.04061 36.8481,20.46673 32.56998,14.57107 -3.10225,-4.27521 -14.46435,-7.16259 -18.60117,-11.18347 -11.9591,-11.62392 -7.07106,-22.22336 -7.07106,-22.22336 0,0 5.3956,17.39542 16.16244,18.9583 11.53009,1.67368 19.1929,-4.81616 19.1929,-4.81616 0,0 -19.1929,6.06091 -25.25382,-8.08122 -6.06091,-14.14214 -6.06091,-14.14214 -6.06091,-14.14214 0,0 7.73459,10.98912 16.16244,9.09137 14.34876,-3.231 11.11168,-12.12183 11.11168,-12.12183 0,0 -7.07107,14.14214 -17.1726,6.06092 -10.10152,-8.08122 -16.16244,-20.20305 -16.16244,-20.20305 0,0 -2.0203,-15.15229 -19.1929,-26.26397 -17.17259,-11.11168 -17.17259,-12.12183 -17.17259,-12.12183 0,0 16.16244,-15.15229 8.08122,-35.35534 -8.08122,-20.20305 -20.20305,-32.32488 -26.26397,-35.35534 -6.06091,-3.03045 -25.25381,-46.46701 -34.34518,-89.90357 -9.09138,-43.43656 -21.21321,-45.45687 6.06091,-62.62946 27.27412,-17.17259 71.68095,-44.56908 80.81221,-47.47717 7.30566,-2.32668 16.75417,-4.16317 19.78463,-11.23423 3.03046,-7.07107 2.97969,-16.39703 15.57071,-18.06019 16.14796,-2.133 16.16244,-3.03046 16.16244,-3.03046 0,0 -17.1726,-9.09138 -27.27412,-2.02031 -10.10153,7.07107 -16.16244,11.11168 -16.16244,11.11168 0,0 5.05076,-15.15229 12.12183,-18.18275 7.07106,-3.03045 23.23351,-5.05076 27.27412,-3.03045 4.04061,2.0203 -10.86016,-7.21238 -22.5805,-6.23424 0,0 -9.34872,1.82599 -13.60116,3.85679 -3.59184,1.71531 -5.89724,5.90642 -9.7549,6.88724 -9.70118,2.46656 -19.83662,-2.84298 -29.82489,-3.49964 -23.18589,-1.52431 -46.46701,-6.06092 -69.70052,-1.01015 -23.23351,5.05076 -25.90942,-13.13904 -30.30458,-25.25382 -7.91575,-21.81887 -16.57034,-48.13018 -14.14213,-58.58884 2.78863,-12.01102 16.47933,-22.16208 29.29442,-30.30458 21.31513,-13.54328 53.53809,-22.22336 57.5787,-28.28427 4.04061,-6.06092 31.31473,-20.97861 33.81473,-25.37637 1.99687,-3.51269 0.88759,-12.77483 13.00942,-16.81544 12.12183,-4.04061 21.86622,-2.2549 21.86622,-2.2549 0,0 -10.92946,-5.30253 -19.67259,-5.6425 -6.40684,-0.24913 -24.31681,15.68103 -26.55983,13.00943 -2.92721,-3.48649 4.09665,-12.62266 10.76504,-18.12147 5.21171,-4.29761 19.55004,-10.51994 19.55004,-10.51994 0,0 -7.10899,-3.37146 -18.42785,1.07143 -7.08225,4.85189 -14.00215,10.51549 -20.14177,20.08049 -3.29131,3.44804 -2.78317,-14.87242 1.25525,-18.12147 4.49665,-3.6177 20.90683,-9.03009 20.90683,-9.03009 0,0 -13.13199,-4.04061 -23.23351,2.0203 -10.10153,6.06092 -18.18275,19.1929 -18.18275,19.1929 0,0 8.08122,-4.04061 -18.18274,0 -26.26397,4.04061 -43.43656,6.06092 -47.47717,12.12183 -4.04061,6.06092 -57.5787,-40.4061 -63.63961,-79.80205 -6.06092,-39.39595 15.15229,-68.69037 29.29442,-86.87312 14.14214,-18.18274 23.23351,-15.15229 25.25382,-25.25381 2.0203,-10.10153 -6.06092,-17.1726 5.05076,-23.23351 11.11168,-6.06092 26.26396,-1.01015 26.26396,-1.01015 0,0 -5.89631,-8.43836 -23.98804,-7.78536 -2.2573,0.0815 -18.43836,9.80566 -18.43836,9.80566 0,0 -5.05077,-11.11168 3.03045,-14.14213 8.08123,-3.03046 25.25382,-3.03046 25.25382,-3.03046 0,0 -9.24586,-6.25055 -19.1929,-6.06092 -5.87708,0.11204 -13.18275,-0.30637 -15.20305,3.73424 -2.02031,4.04061 -9.04061,13.43836 -9.04061,13.43836 0,0 -1.06092,-16.99928 1.96954,-21.03989 3.03046,-4.04061 15.98912,-7.29515 15.98912,-7.29515 0,0 -5.75452,-4.33647 -19.43799,0.40791 -10.27933,3.56409 -7.72408,23.52938 -7.72408,23.52938 l 2.13234,10.45866 c 0,0 -5.33907,2.8794 -11.11168,4.04061 -12.00055,2.41402 -15.74402,4.18419 -25.23278,10.59174 -19.52567,13.18523 -22.24439,25.77375 -43.45759,0.51994 -21.2132,-25.25381 -15.15229,-73.741136 -52.52793,-91.923882 -37.37565,-18.182745 -64.64977,-16.16244 -78.7919,-14.142135 -14.14214,2.020305 -16.16244,2.020305 -16.16244,2.020305 z"
       id="path5978"
       style="fill:#000000;fill-opacity:1;stroke:#000000;stroke-width:1px;stroke-linecap:butt;stroke-linejoin:miter;stroke-opacity:1" />
  </g>
</svg>
