<svg xmlns="http://www.w3.org/2000/svg" width="2360" height="1640" viewBox="0 0 2360 1640" version="1.1">
	<path d="M 1417 177.196 C 1417 177.854, 1418.153 180.057, 1419.563 182.091 C 1422.688 186.601, 1432.276 209.211, 1439.666 229.500 C 1442.671 237.750, 1447.984 251.255, 1451.472 259.510 C 1458.250 275.549, 1461.730 285.685, 1464.858 298.500 C 1465.932 302.900, 1469.738 314.150, 1473.317 323.500 C 1481.376 344.558, 1481.052 343.279, 1485.953 373.346 C 1491.217 405.633, 1491.703 410.969, 1489.763 415.198 C 1488.929 417.014, 1487.965 421.072, 1487.619 424.216 C 1487.273 427.359, 1484.924 435.684, 1482.398 442.716 C 1472.972 468.957, 1469.004 480.974, 1463.981 498.500 C 1457.506 521.093, 1453.586 531.716, 1444.976 550 C 1440.291 559.950, 1437.479 567.481, 1436.016 574 C 1434.844 579.225, 1433.171 586.687, 1432.299 590.583 C 1431.132 595.794, 1430.996 598.170, 1431.783 599.577 C 1433.825 603.225, 1429.525 608.404, 1416.537 617.943 C 1402.922 627.942, 1399.924 631.332, 1382.570 656.346 C 1376.142 665.611, 1368.735 675.961, 1366.109 679.346 C 1360.224 686.933, 1336.762 719.962, 1327.642 733.500 C 1316.469 750.086, 1299.830 770.364, 1296.463 771.500 C 1294.833 772.050, 1292.386 773.288, 1291.027 774.250 C 1286.366 777.550, 1286 776.877, 1286 765 C 1286 758.950, 1286.360 754, 1286.800 754 C 1288.461 754, 1290 756.501, 1290 759.200 C 1290 760.740, 1290.395 762, 1290.878 762 C 1292.699 762, 1293.961 759.182, 1294.610 753.665 C 1295.216 748.504, 1294.964 747.322, 1291.954 741.231 C 1287.613 732.446, 1284.561 728.341, 1280.998 726.499 C 1276.595 724.222, 1273.572 724.658, 1270.259 728.046 C 1267.767 730.595, 1267.180 732.170, 1266.665 737.689 C 1266.326 741.316, 1265.904 744.429, 1265.728 744.606 C 1265.551 744.782, 1262.953 744.265, 1259.953 743.458 C 1256.954 742.650, 1249.017 741.699, 1242.315 741.344 C 1235.613 740.988, 1229.638 740.394, 1229.038 740.024 C 1228.438 739.653, 1227.663 736.950, 1227.316 734.017 C 1226.603 727.996, 1224.316 725, 1220.434 725 C 1215.296 725, 1205.619 732.434, 1202.862 738.500 C 1200.425 743.863, 1200.484 750.700, 1203 754.500 C 1204.440 756.675, 1204.989 759.195, 1204.993 763.662 C 1204.997 767.051, 1205.675 773.351, 1206.500 777.662 C 1208.328 787.214, 1208.401 792.075, 1206.750 794.310 C 1205.625 795.833, 1204.501 795.235, 1195.500 788.325 C 1183.042 778.760, 1175.172 770.834, 1162.904 755.497 C 1152.307 742.249, 1151.005 740.207, 1150.990 736.816 C 1150.970 732.056, 1145.935 724.153, 1135.616 712.684 C 1123.661 699.396, 1119.408 693.487, 1112.455 680.500 C 1109.804 675.550, 1105.805 669.552, 1103.568 667.171 C 1098.229 661.490, 1083.889 649.951, 1082.915 650.552 C 1082.496 650.812, 1081.188 649.668, 1080.008 648.012 C 1078.829 646.355, 1078.095 645, 1078.378 645 C 1078.661 645, 1078.044 642.534, 1077.007 639.520 C 1075.970 636.506, 1075.180 633.243, 1075.252 632.270 C 1075.509 628.784, 1070.183 619.272, 1063.875 611.951 C 1060.344 607.853, 1055.005 601.439, 1052.010 597.697 C 1044.177 587.911, 1008.449 554.017, 987.503 536.500 C 977.638 528.250, 966.786 518.905, 963.388 515.733 C 956.589 509.388, 946.065 503.925, 936.207 501.625 C 931.670 500.567, 928.124 498.675, 921.324 493.684 C 903.949 480.931, 894.206 476.696, 864.330 468.909 C 846.151 464.171, 843.319 463.700, 830.317 463.247 C 813.643 462.665, 810.143 463.167, 805.886 466.749 L 802.713 469.419 803.365 481.960 C 803.724 488.857, 804.908 498.775, 805.996 504 C 807.084 509.225, 807.980 515.386, 807.987 517.691 C 807.994 519.996, 808.421 522.142, 808.936 522.460 C 811.182 523.848, 812.141 505.285, 811 482.530 C 810.507 472.693, 810.533 472.542, 813 471.221 C 814.868 470.221, 818.788 470.004, 828.500 470.362 C 839.305 470.761, 844.202 471.519, 857.500 474.852 C 866.300 477.058, 877.325 480.066, 882 481.536 C 900.426 487.332, 922.206 501.238, 935.577 515.745 C 939.508 520.010, 947.588 527.325, 953.532 532 C 971.974 546.505, 980.110 553.778, 991.396 565.847 C 997.389 572.256, 1007.964 583.362, 1014.896 590.527 C 1021.828 597.692, 1033.773 610.413, 1041.440 618.797 C 1049.108 627.180, 1058.580 636.718, 1062.490 639.992 C 1069.210 645.618, 1081 660.795, 1081 663.818 C 1081 665.646, 1084.626 672.473, 1089.016 678.913 C 1091.111 681.986, 1094.935 688.688, 1097.514 693.807 C 1100.094 698.926, 1103.810 705.226, 1105.774 707.807 C 1112.244 716.314, 1132.389 737.089, 1138.500 741.557 C 1147.052 747.810, 1148.573 749.330, 1157.445 760.500 C 1167.944 773.719, 1181.361 786.980, 1192.750 795.395 C 1197.838 799.154, 1202 802.819, 1202 803.539 C 1202 804.259, 1201.471 807.137, 1200.825 809.936 C 1199.786 814.441, 1199.413 814.944, 1197.575 814.329 C 1196.434 813.947, 1193.674 813.154, 1191.443 812.567 C 1188.155 811.702, 1185.122 809.149, 1175.443 799.099 C 1168.874 792.278, 1157.650 781.502, 1150.500 775.153 C 1143.350 768.803, 1132.775 759.038, 1127 753.453 C 1107.923 735.005, 1097.442 726.488, 1087.668 721.492 C 1082.628 718.916, 1076.703 715.494, 1074.502 713.888 C 1070.078 710.660, 1041 682.027, 1041 680.899 C 1041 680.085, 1035.380 676.728, 1026 671.938 C 1018.876 668.300, 1013.176 664.403, 1011.278 661.872 C 1009.126 659.002, 991.866 648.447, 980 642.744 C 967.308 636.644, 951.215 630.632, 919.500 620.141 C 907.950 616.321, 891.300 610.687, 882.500 607.622 C 858.113 599.128, 845.936 596.962, 842.929 600.585 C 841.154 602.725, 836.760 602.167, 819.616 597.629 C 788.597 589.417, 740.309 582.345, 704.872 580.823 C 676.730 579.614, 669.510 580.142, 659.549 584.135 C 651.821 587.233, 650.861 589.464, 657.630 588.597 C 668.190 587.245, 699.469 586.844, 715.168 587.860 C 734.052 589.082, 785.990 596.677, 805.439 601.060 C 826.898 605.897, 835.621 608.724, 840.445 612.406 C 842.898 614.279, 847.198 616.321, 850.171 617.026 C 859.051 619.130, 880.917 626.864, 891 631.467 C 896.225 633.852, 907.700 638.041, 916.500 640.774 C 925.300 643.508, 936.550 647.427, 941.500 649.482 C 958.260 656.440, 965.464 658.992, 980 663.122 C 987.975 665.387, 996.881 668.126, 999.792 669.208 C 1003.848 670.716, 1005.408 670.907, 1006.470 670.025 C 1008.324 668.486, 1012.990 670.887, 1016.154 675.006 C 1017.444 676.686, 1021.227 680.859, 1024.560 684.280 C 1027.893 687.701, 1033.177 694.154, 1036.302 698.620 C 1045.982 712.453, 1066.618 730.657, 1094 749.517 C 1098.675 752.737, 1106.779 759.451, 1112.009 764.436 C 1136.200 787.496, 1154.349 802.834, 1165.979 810.047 C 1170.371 812.771, 1174.355 815, 1174.832 815 C 1176.827 815, 1184.050 821.212, 1186.941 825.415 C 1188.655 827.905, 1192.069 831.328, 1194.528 833.020 C 1198.632 835.843, 1199 836.444, 1199 840.317 L 1199 844.539 1191.750 844.188 C 1185.479 843.885, 1182.811 844.376, 1171.989 847.827 C 1151.113 854.485, 1127.018 860.813, 1110.328 864.021 C 1085.892 868.717, 1080.901 870.007, 1075.368 873.056 C 1067.680 877.293, 1058.610 879.391, 1053.524 878.110 C 1048.243 876.781, 1038.443 878.741, 1012.500 886.315 C 1002.050 889.366, 990.942 892.572, 987.816 893.440 C 984.281 894.421, 981.400 895.947, 980.199 897.475 C 978.673 899.415, 974.912 900.880, 962.320 904.440 C 953.549 906.920, 942.352 909.894, 937.437 911.050 C 932.522 912.206, 920.850 915.334, 911.500 918.002 C 902.150 920.671, 891.575 923.588, 888 924.485 C 873.215 928.194, 859 933.092, 859 934.475 C 859 935.249, 859.349 936.098, 859.776 936.361 C 861.396 937.363, 882.065 933.614, 895.500 929.882 C 903.200 927.744, 916.250 924.187, 924.500 921.980 C 932.750 919.772, 948.275 915.555, 959 912.608 C 977.051 907.648, 978.679 907.361, 980.905 908.750 C 984.299 910.866, 991.924 909.931, 1006.500 905.611 C 1013.100 903.655, 1024.575 900.433, 1032 898.451 C 1044.090 895.223, 1060 888.623, 1060 886.836 C 1060 884.972, 1067.563 883.843, 1075.313 884.550 C 1087.771 885.686, 1092.693 885.323, 1108.735 882.082 C 1131.518 877.480, 1166.790 866.693, 1190.500 857.076 C 1196 854.845, 1200.860 853.015, 1201.301 853.010 C 1202.205 852.999, 1205 859.231, 1205 861.257 C 1205 861.983, 1202.336 865.579, 1199.079 869.247 C 1190.849 878.519, 1182.931 890.609, 1182.279 894.899 C 1181.912 897.312, 1178.782 902.545, 1172.789 910.765 C 1163.476 923.539, 1157.200 935.568, 1149.483 955.435 C 1147.119 961.521, 1142.742 971.675, 1139.757 978 C 1136.772 984.325, 1133.073 992.875, 1131.537 997 C 1123.003 1019.925, 1109.162 1047.499, 1102.326 1055.196 C 1099.947 1057.875, 1098 1060.647, 1098 1061.356 C 1098 1063.406, 1089.508 1080.040, 1085.840 1085.175 C 1072.815 1103.411, 1067.715 1110.012, 1063.881 1113.598 C 1061.471 1115.852, 1056.916 1120.077, 1053.758 1122.985 C 1050.601 1125.894, 1044.301 1133.028, 1039.758 1138.839 C 1035.216 1144.649, 1028.333 1152.800, 1024.462 1156.952 C 1017.148 1164.797, 1007.923 1176.077, 1003.541 1182.535 C 1000.853 1186.496, 1000.121 1192.721, 1002.110 1194.710 C 1002.923 1195.523, 1001.342 1198.451, 996.199 1205.660 C 992.338 1211.072, 986.736 1220.450, 983.749 1226.500 C 980.762 1232.550, 972.794 1248.075, 966.042 1261 C 948.458 1294.661, 940.898 1310.535, 936.460 1323.114 C 934.667 1328.195, 934.665 1328.066, 936.535 1327.348 C 939.167 1326.338, 943.498 1319, 949.427 1305.500 C 952.567 1298.350, 957.590 1288.142, 960.588 1282.815 C 963.586 1277.488, 968.675 1267.545, 971.896 1260.720 C 975.117 1253.895, 978.913 1247.228, 980.331 1245.905 C 981.749 1244.582, 985.226 1239.225, 988.058 1234 C 990.890 1228.775, 996.699 1219.550, 1000.967 1213.500 C 1005.235 1207.450, 1009.254 1201.487, 1009.899 1200.250 C 1010.543 1199.013, 1011.617 1197.985, 1012.285 1197.967 C 1014.180 1197.915, 1016.992 1195.154, 1023.965 1186.500 C 1027.510 1182.100, 1033.474 1175.186, 1037.217 1171.136 C 1040.961 1167.086, 1047.563 1159.187, 1051.890 1153.582 C 1056.216 1147.978, 1064.593 1138.917, 1070.504 1133.446 C 1080.427 1124.264, 1085.450 1118.135, 1101.858 1095.195 C 1103.705 1092.613, 1107.672 1085.409, 1110.674 1079.186 C 1115.818 1068.525, 1116.152 1067.367, 1116.458 1059.125 C 1116.742 1051.510, 1117.232 1049.482, 1120.252 1043.440 C 1122.160 1039.623, 1124.513 1034.025, 1125.483 1031 C 1129.907 1017.196, 1157.742 956.517, 1167.707 938.951 C 1174.392 927.168, 1190.665 904.298, 1193.887 902.159 L 1196.266 900.579 1195.551 912.540 C 1194.589 928.642, 1193.414 940.505, 1191.593 952.500 C 1190.132 962.130, 1189.469 968.741, 1186.849 999.806 C 1185.567 1015.013, 1186.232 1026.223, 1189.588 1046.015 C 1191.561 1057.644, 1199.391 1079.579, 1205.194 1089.732 C 1212.763 1102.976, 1218.731 1107.316, 1226.902 1105.522 C 1231.197 1104.578, 1244.803 1089.806, 1249.355 1081.144 C 1254.142 1072.034, 1261.747 1051.981, 1270.078 1026.500 C 1277.349 1004.259, 1279.330 996.027, 1280.907 981.500 C 1282.711 964.872, 1284.151 952.535, 1284.873 947.500 L 1285.591 942.500 1288.248 950.500 C 1292.759 964.083, 1294.113 970.667, 1293.443 975.768 C 1293.101 978.371, 1293.523 985.900, 1294.380 992.500 C 1298.197 1021.897, 1299.018 1030.595, 1299.572 1047.500 C 1300.272 1068.839, 1303.473 1103.651, 1305.641 1113.500 C 1306.489 1117.350, 1308.744 1123.710, 1310.653 1127.634 C 1312.562 1131.558, 1316.289 1140.783, 1318.936 1148.134 C 1321.583 1155.485, 1326.896 1168.700, 1330.743 1177.500 C 1334.591 1186.300, 1338.315 1195.300, 1339.020 1197.500 C 1341.928 1206.578, 1345.516 1215.913, 1348.661 1222.586 C 1350.497 1226.483, 1352 1230.589, 1352 1231.710 C 1352 1235.430, 1354.825 1241.833, 1359.441 1248.574 C 1361.948 1252.236, 1364.089 1256.418, 1364.199 1257.866 C 1364.308 1259.315, 1364.441 1273.325, 1364.494 1289 C 1364.602 1320.937, 1364.918 1323.442, 1372.507 1352.500 C 1379.421 1378.971, 1381.997 1388.126, 1383.128 1390.240 C 1383.703 1391.313, 1385.209 1397.886, 1386.475 1404.846 C 1387.741 1411.806, 1390.227 1421.258, 1392 1425.852 C 1394.914 1433.401, 1395.373 1434.055, 1396.777 1432.652 C 1398.180 1431.249, 1398.113 1429.725, 1396.085 1416.800 C 1394.851 1408.935, 1393.242 1399.617, 1392.510 1396.093 C 1391.526 1391.360, 1391.467 1389.225, 1392.282 1387.920 C 1393.852 1385.406, 1391.920 1374.356, 1384.896 1345.679 C 1376.784 1312.562, 1373.651 1288.207, 1374.197 1262.500 C 1374.418 1252.054, 1374.238 1250.946, 1370.625 1240.500 C 1367.061 1230.199, 1345.429 1178.407, 1339.249 1165.380 C 1337.714 1162.146, 1334.805 1157.015, 1332.784 1153.978 C 1326.775 1144.951, 1322.896 1135.637, 1321.859 1127.750 C 1317.722 1096.279, 1315.003 1069.238, 1313.940 1049 C 1313.376 1038.275, 1311.576 1018.250, 1309.939 1004.500 C 1307.130 980.900, 1306.768 979.104, 1303.481 972.425 C 1301.567 968.534, 1300 964.827, 1300 964.187 C 1300 961.647, 1293.597 943.242, 1290.225 936.090 C 1286.767 928.754, 1286.641 928.081, 1286.463 915.985 C 1286.202 898.267, 1283.325 889.982, 1273.944 879.940 C 1271.319 877.130, 1271.182 876.648, 1272.452 874.673 C 1273.221 873.478, 1275.030 869.529, 1276.472 865.898 C 1278.919 859.736, 1279.273 859.329, 1281.765 859.806 C 1283.234 860.087, 1286.475 861.771, 1288.968 863.548 C 1291.461 865.326, 1297.100 868.774, 1301.500 871.210 C 1305.900 873.647, 1316.250 879.611, 1324.500 884.463 C 1332.750 889.315, 1354.350 900.725, 1372.500 909.817 C 1416.584 931.901, 1420.491 934.133, 1438.716 947.644 C 1454.288 959.189, 1464.364 964.998, 1468.818 964.999 C 1470.117 965, 1477.811 969.562, 1486.318 975.376 C 1494.668 981.083, 1506.450 988.790, 1512.500 992.504 C 1518.550 996.217, 1528 1002.283, 1533.500 1005.984 C 1555.642 1020.885, 1584.152 1037, 1588.371 1037 C 1589.149 1037, 1590.024 1036.379, 1590.316 1035.620 C 1590.964 1033.929, 1580.230 1026.090, 1563.475 1016.019 C 1550.057 1007.954, 1526.511 992.847, 1497.372 973.609 C 1482.727 963.940, 1477.234 959.746, 1475.391 956.828 C 1474 954.623, 1471.323 952.192, 1469.217 951.218 C 1467.173 950.273, 1465.349 949.158, 1465.164 948.741 C 1464.765 947.841, 1435.643 925.723, 1429.613 921.741 C 1427.129 920.100, 1421.193 917.930, 1414.968 916.388 C 1402.905 913.399, 1399.237 911.503, 1388.701 902.810 C 1381.103 896.540, 1371.025 890.931, 1349 880.711 C 1342.675 877.776, 1333.521 873.024, 1328.659 870.152 C 1323.796 867.279, 1315.709 862.865, 1310.688 860.343 C 1305.667 857.821, 1298.670 853.780, 1295.140 851.363 C 1291.609 848.946, 1287.659 846.701, 1286.360 846.376 C 1283.702 845.708, 1283.577 845.064, 1285.065 839.705 C 1285.941 836.551, 1287.274 835.170, 1292.965 831.522 C 1297.183 828.819, 1301.033 825.358, 1302.993 822.510 C 1305.938 818.230, 1313.154 812, 1315.168 812 C 1315.645 812, 1319.629 809.771, 1324.021 807.047 C 1335.651 799.834, 1353.800 784.496, 1377.991 761.436 C 1383.221 756.451, 1391.325 749.737, 1396 746.517 C 1423.382 727.657, 1444.018 709.453, 1453.698 695.620 C 1456.823 691.154, 1462.107 684.701, 1465.440 681.280 C 1468.773 677.859, 1472.556 673.686, 1473.846 672.006 C 1477.010 667.887, 1481.676 665.486, 1483.530 667.025 C 1484.592 667.907, 1486.152 667.716, 1490.208 666.208 C 1493.119 665.126, 1502.025 662.387, 1510 660.122 C 1524.536 655.992, 1531.740 653.440, 1548.500 646.482 C 1553.450 644.427, 1564.700 640.508, 1573.500 637.774 C 1582.300 635.041, 1593.775 630.852, 1599 628.467 C 1609.083 623.864, 1630.949 616.130, 1639.829 614.026 C 1642.802 613.321, 1647.102 611.279, 1649.555 609.406 C 1654.379 605.724, 1663.102 602.897, 1684.561 598.060 C 1704.010 593.677, 1755.948 586.082, 1774.832 584.860 C 1790.531 583.844, 1821.810 584.245, 1832.370 585.597 C 1839.139 586.464, 1838.179 584.233, 1830.451 581.135 C 1820.490 577.142, 1813.270 576.614, 1785.128 577.823 C 1749.691 579.345, 1701.403 586.417, 1670.384 594.629 C 1653.240 599.167, 1648.846 599.725, 1647.071 597.585 C 1644.064 593.962, 1631.887 596.128, 1607.500 604.622 C 1598.700 607.687, 1582.050 613.321, 1570.500 617.141 C 1538.785 627.632, 1522.692 633.644, 1510 639.744 C 1498.134 645.447, 1480.874 656.002, 1478.722 658.872 C 1476.824 661.403, 1471.124 665.300, 1464 668.938 C 1454.620 673.728, 1449 677.085, 1449 677.899 C 1449 679.027, 1419.922 707.660, 1415.498 710.888 C 1413.297 712.494, 1407.372 715.916, 1402.332 718.492 C 1392.558 723.488, 1382.077 732.005, 1363 750.453 C 1357.225 756.038, 1346.650 765.800, 1339.500 772.146 C 1332.350 778.492, 1321.029 789.381, 1314.343 796.342 C 1307.521 803.445, 1301.377 809.010, 1300.343 809.024 C 1299.329 809.037, 1295.823 810.148, 1292.552 811.493 C 1289.281 812.837, 1286.540 813.839, 1286.461 813.719 C 1286.383 813.598, 1285.718 811.291, 1284.985 808.591 L 1283.651 803.683 1288.421 799.657 C 1291.045 797.442, 1296.918 791.101, 1301.473 785.565 C 1306.164 779.863, 1313.957 772.032, 1319.449 767.500 C 1342.542 748.445, 1409.010 659.784, 1426.941 624.117 C 1431.387 615.274, 1437.921 604.750, 1439.347 604.134 C 1442.327 602.848, 1447.690 596.635, 1452.047 589.423 C 1461.917 573.081, 1467.716 558.234, 1471.933 538.500 C 1475.465 521.971, 1478.659 511.186, 1484.074 497.500 C 1495.909 467.587, 1500.677 449.094, 1501.447 430.118 C 1501.951 417.691, 1501.897 417.249, 1499.483 413.976 C 1497.812 411.712, 1497 409.301, 1497 406.604 C 1497 399.138, 1488.057 346.614, 1485.404 338.500 C 1483.965 334.100, 1480.575 324.936, 1477.870 318.135 C 1475.165 311.334, 1471.639 300.464, 1470.035 293.977 C 1467.112 282.162, 1464.209 274.040, 1453.238 247 C 1450.002 239.025, 1445.206 226.650, 1442.580 219.500 C 1436.044 201.701, 1427.994 185.352, 1423.255 180.250 C 1419.341 176.036, 1417 174.893, 1417 177.196" stroke="none" fill="black" fill-rule="evenodd"/>
</svg>